Coordinates
version=1
nRows=60
nColumns=12
inDegrees=yes

Units are S.I. units (second, meters, Newtons, ...)
Angles are in degrees

endheader
time	SC_y	SC_z	SC_x	AC_y	AC_z	AC_x	GH_y	GH_z	GH_yy	EL_x	PS_y
       0.0               -43.6          3.499          12.64          61.23         -12.54          2.821          164.8         -2.009         -178.6          50.43          152.3
    0.0498               -43.6          3.498          12.65          61.23         -12.54          2.823          164.8         -2.011         -178.6          50.43          152.3
    0.0996               -43.6          3.498          12.66          61.23         -12.54          2.824          164.8         -2.012         -178.6          50.43          152.3
    0.1494              -43.59          3.498          12.67          61.23         -12.54          2.826          164.8         -2.014         -178.6          50.43          152.3
    0.1992              -43.59          3.498          12.68          61.23         -12.54          2.827          164.8         -2.016         -178.6          50.43          152.3
     0.249              -43.59          3.497          12.69          61.23         -12.53          2.829          164.8         -2.018         -178.6          50.43          152.3
    0.2988              -43.59          3.497           12.7          61.23         -12.53          2.831          164.8          -2.02         -178.6          50.43          152.3
    0.3486              -43.58          3.497          12.71          61.23         -12.53          2.833          164.8         -2.022         -178.6          50.43          152.3
    0.3984              -43.58          3.496          12.72          61.23         -12.53          2.835          164.8         -2.024         -178.6          50.43          152.3
    0.4482              -43.58          3.496          12.74          61.23         -12.52          2.838          164.8         -2.027         -178.6          50.43          152.2
     0.498              -43.58          3.495          12.75          61.23         -12.52           2.84          164.8          -2.03         -178.6          50.44          152.2
    0.5478              -43.57          3.495          12.77          61.24         -12.52          2.843          164.8         -2.033         -178.6          50.44          152.2
    0.5976              -43.57          3.495          12.78          61.24         -12.51          2.846          164.8         -2.036         -178.5          50.44          152.2
    0.6474              -43.57          3.494           12.8          61.24         -12.51          2.849          164.8         -2.039         -178.5          50.44          152.2
    0.6972              -43.56          3.493          12.82          61.24         -12.51          2.853          164.8         -2.043         -178.5          50.44          152.1
     0.747              -43.56          3.493          12.84          61.24          -12.5          2.857          164.8         -2.047         -178.5          50.44          152.1
    0.7968              -43.55          3.492          12.86          61.24          -12.5          2.861          164.8         -2.051         -178.5          50.44          152.1
    0.8466              -43.55          3.491          12.89          61.24         -12.49          2.865          164.8         -2.056         -178.5          50.45          152.1
    0.8964              -43.54          3.491          12.92          61.24         -12.49           2.87          164.8         -2.061         -178.4          50.45          152.0
    0.9462              -43.54           3.49          12.95          61.24         -12.48          2.876          164.8         -2.067         -178.4          50.45          152.0
     0.996              -43.53          3.489          12.98          61.24         -12.48          2.881          164.8         -2.073         -178.4          50.45          152.0
     1.046              -43.52          3.488          13.02          61.24         -12.47          2.888          164.8          -2.08         -178.4          50.45          151.9
     1.096              -43.51          3.487          13.06          61.24         -12.46          2.895          164.8         -2.088         -178.4          50.46          151.9
     1.145              -43.51          3.485           13.1          61.24         -12.45          2.903          164.8         -2.096         -178.3          50.46          151.8
     1.195               -43.5          3.484          13.15          61.25         -12.44          2.912          164.8         -2.106         -178.3          50.46          151.8
     1.245              -43.48          3.482          13.21          61.25         -12.43          2.922          164.8         -2.116         -178.2          50.47          151.7
     1.295              -43.47          3.481          13.27          61.25         -12.42          2.933          164.7         -2.128         -178.2          50.47          151.6
     1.345              -43.46          3.479          13.34          61.25         -12.41          2.945          164.7         -2.141         -178.2          50.48          151.6
     1.394              -43.44          3.476          13.41          61.25         -12.39          2.959          164.7         -2.156         -178.1          50.48          151.5
     1.444              -43.42          3.474           13.5          61.26         -12.37          2.975          164.7         -2.173         -178.0          50.49          151.4
     1.494               -43.4          3.471          13.61          61.26         -12.35          2.993          164.7         -2.192         -178.0          50.49          151.3
     1.544              -43.38          3.468          13.72          61.26         -12.33          3.014          164.7         -2.214         -177.9           50.5          151.1
     1.594              -43.35          3.464          13.86          61.27          -12.3          3.038          164.7          -2.24         -177.8          50.51          151.0
     1.643              -43.32          3.459          14.01          61.27         -12.27          3.066          164.7          -2.27         -177.7          50.52          150.8
     1.693              -43.28          3.454           14.2          61.28         -12.23          3.098          164.7         -2.305         -177.6          50.54          150.6
     1.743              -43.24          3.448          14.41          61.28         -12.19          3.137          164.7         -2.346         -177.4          50.55          150.4
     1.793              -43.19           3.44          14.67          61.29         -12.14          3.183          164.6         -2.394         -177.2          50.57          150.1
     1.843              -43.13          3.432          14.97           61.3         -12.08          3.238          164.6         -2.453         -177.0          50.59          149.7
     1.892              -43.05          3.421          15.35          61.31         -12.01          3.304          164.6         -2.524         -176.8          50.62          149.3
     1.942              -42.96          3.408           15.8          61.32         -11.92          3.385          164.5          -2.61         -176.5          50.65          148.8
     1.992              -42.85          3.392          16.36          61.34         -11.81          3.485          164.5         -2.717         -176.1          50.69          148.2
     2.042               -42.7          3.372          17.06          61.36         -11.67           3.61          164.4          -2.85         -175.6          50.73          147.4
     2.092              -42.53          3.346          17.94          61.38         -11.49          3.767          164.3         -3.017         -175.0          50.79          146.4
     2.141               -42.3          3.314          19.06          61.41         -11.27          3.967          164.2          -3.23         -174.2          50.87          145.2
     2.191              -42.01          3.273          20.49          61.45         -10.99          4.223          164.1         -3.503         -173.2          50.97          143.6
     2.241              -41.64           3.22          22.33           61.5         -10.62          4.551          164.0         -3.853         -171.9           51.1          141.5
     2.291              -41.16          3.153          24.67          61.57         -10.16           4.97          163.8         -4.299         -170.3          51.26          138.9
     2.341              -40.57          3.068          27.63          61.65         -9.571          5.497          163.5         -4.861         -168.3          51.46          135.6
      2.39              -39.84          2.965          31.22          61.75         -8.858           6.14          163.2         -5.546         -165.8          51.71          131.6
      2.44              -38.99          2.845          35.39          61.87         -8.031          6.885          162.8         -6.339         -162.9           52.0          126.9
      2.49              -38.08          2.716          39.91          61.99         -7.136          7.691          162.4         -7.199         -159.8          52.31          121.9
      2.54              -37.17          2.586          44.42          62.12         -6.241          8.497          162.1         -8.058         -156.7          52.62          116.8
      2.59              -36.32          2.466          48.59          62.24         -5.414          9.242          161.7         -8.852         -153.8          52.91          112.1
     2.639              -35.59          2.363          52.19          62.34           -4.7          9.884          161.4         -9.536         -151.3          53.16          108.1
     2.689               -35.0          2.278          55.14          62.42         -4.115          10.41          161.1          -10.1         -149.3          53.36          104.8
     2.739              -34.52          2.211          57.49          62.49         -3.649          10.83          160.9         -10.54         -147.7          53.53          102.2
     2.789              -34.15          2.158          59.32          62.54         -3.285          11.16          160.8         -10.89         -146.4          53.65          100.1
     2.839              -33.86          2.117          60.75          62.58         -3.001          11.41          160.7         -11.17         -145.4          53.75          98.55
     2.888              -33.63          2.085          61.87          62.61         -2.779          11.61          160.6         -11.38         -144.6          53.83          97.29
     2.938              -33.46          2.059          62.75          62.63         -2.605          11.77          160.5         -11.55         -144.0          53.89          96.31
